<svg width="26" height="32" viewBox="0 0 26 32" fill="none" xmlns="http://www.w3.org/2000/svg">
<path d="M4.72377 4.06005C5.27209 4.06005 5.71659 3.60566 5.71659 3.04513C5.71659 2.48461 5.27209 2.03021 4.72377 2.03021C4.17546 2.03021 3.73096 2.48461 3.73096 3.04513C3.73096 3.60566 4.17546 4.06005 4.72377 4.06005Z" fill="#464441"/>
<path d="M1.03895 4.06097C0.83733 4.05658 0.639017 4.11235 0.469232 4.22117C0.299447 4.32998 0.165925 4.48691 0.0857076 4.67194C0.00549012 4.85696 -0.0177944 5.06168 0.0188343 5.25999C0.055463 5.4583 0.150353 5.6412 0.291372 5.78536C0.432391 5.92952 0.613183 6.0284 0.810637 6.06938C1.00809 6.11037 1.2132 6.09161 1.39994 6.01548C1.58669 5.93936 1.74649 5.80932 1.85902 5.64197C1.97155 5.47463 2.03167 5.27755 2.03172 5.07589C2.03324 4.94404 2.00877 4.81319 1.95968 4.6908C1.9106 4.56842 1.8379 4.45691 1.74569 4.36266C1.65348 4.2684 1.54362 4.19323 1.42235 4.14147C1.30108 4.0897 1.1708 4.06235 1.03895 4.06097Z" fill="#464441"/>
<path d="M1.03895 0.000261994C0.837064 -0.00432303 0.638383 0.0513625 0.468294 0.160208C0.298206 0.269053 0.164477 0.426119 0.0840665 0.611353C0.00365548 0.796587 -0.0197908 1.00158 0.0168412 1.20017C0.0534732 1.39875 0.148523 1.58191 0.289731 1.72627C0.43094 1.87062 0.611971 1.96961 0.8097 2.0106C1.00743 2.0516 1.21287 2.03274 1.39983 1.95642C1.58679 1.88011 1.74669 1.74981 1.85926 1.58216C1.97182 1.41451 2.03186 1.21712 2.03172 1.01518C2.03324 0.883332 2.00877 0.752477 1.95969 0.630095C1.9106 0.507713 1.8379 0.396205 1.74569 0.301947C1.65349 0.207689 1.54362 0.132524 1.42235 0.0807592C1.30108 0.0289941 1.1708 0.00164251 1.03895 0.000261994Z" fill="#464441"/>
<path d="M25.6672 5.02599L21.791 1.43053C21.4385 1.10114 20.9742 0.917728 20.4917 0.917297H9.38523C9.18114 0.919432 8.97944 0.961748 8.7917 1.04183C8.60397 1.12191 8.43389 1.23818 8.29109 1.38401C8.1483 1.52984 8.03566 1.70237 7.95954 1.89175C7.88343 2.08113 7.84534 2.28364 7.8475 2.48773V3.6449C7.84459 4.03087 7.95506 4.40921 8.16521 4.73297C8.37535 5.05674 8.67591 5.31168 9.02963 5.46618L10.2445 5.98613C10.1032 7.74878 9.65142 9.75748 8.74606 10.5725C8.62004 10.6871 8.54342 10.8461 8.5323 11.016C8.52119 11.186 8.57644 11.3536 8.68647 11.4836C8.85219 11.638 9.0481 11.7563 9.26181 11.8312C9.47552 11.9062 9.70249 11.9361 9.92831 11.919C10.2168 11.9178 10.5037 11.8764 10.7808 11.796C11.7082 11.5278 13.2892 10.6186 13.9995 7.59597L14.8173 7.94677V8.58974C14.5445 8.74318 14.3174 8.96651 14.1595 9.23677C14.0016 9.50703 13.9185 9.81448 13.9188 10.1275V13.0637C13.9178 13.1477 13.9333 13.2312 13.9646 13.3093C13.9959 13.3873 14.0424 13.4584 14.1012 13.5185C14.16 13.5786 14.2301 13.6265 14.3075 13.6594C14.3848 13.6924 14.468 13.7097 14.5521 13.7105H14.804C14.6733 17.4713 13.3815 18.3766 11.7159 19.1397C11.5948 19.1945 11.4699 19.2483 11.345 19.3031C10.0859 19.8461 8.36547 20.59 8.36547 24.0048V29.6906C8.35932 30.2222 8.56434 30.7345 8.93554 31.1151C9.30673 31.4957 9.81382 31.7134 10.3454 31.7205H21.7296C22.2612 31.7134 22.7684 31.4957 23.1398 31.1152C23.5111 30.7346 23.7163 30.2223 23.7104 29.6906V20.6957C23.777 19.3627 23.4013 18.0449 22.6416 16.9475C21.992 15.9962 21.6443 14.8711 21.644 13.7191H21.8921C21.9761 13.7182 22.0591 13.7008 22.1364 13.6678C22.2138 13.6348 22.2839 13.587 22.3427 13.5269C22.4015 13.4668 22.4479 13.3958 22.4793 13.3178C22.5106 13.2398 22.5262 13.1564 22.5254 13.0723V10.14C22.5255 9.82687 22.4423 9.51937 22.2841 9.2491C22.126 8.97883 21.8988 8.75555 21.6257 8.60224V7.09812C21.6247 7.02631 21.6521 6.95701 21.702 6.90533C21.7519 6.85365 21.8203 6.8238 21.8921 6.82229H24.9944C25.1984 6.8219 25.3974 6.75881 25.5643 6.64156C25.7313 6.52431 25.8581 6.35858 25.9277 6.16682C26.0044 5.97258 26.0206 5.75967 25.9741 5.55607C25.9277 5.35246 25.8207 5.16768 25.6672 5.02599ZM10.823 10.4014C10.6728 10.4771 10.5145 10.5355 10.3511 10.5754C10.988 9.30815 11.3697 7.92815 11.4746 6.51378L12.8135 7.09043C12.3666 9.18755 11.5015 10.0564 10.823 10.4014ZM21.2596 10.1304V12.4159H15.1894V10.1304C15.1881 10.0076 15.2355 9.8893 15.3212 9.8014C15.407 9.71349 15.524 9.66315 15.6468 9.66137H20.8021C20.8631 9.66213 20.9233 9.67487 20.9793 9.6989C21.0353 9.72293 21.0861 9.75776 21.1286 9.8014C21.1712 9.84505 21.2048 9.89664 21.2274 9.95325C21.2501 10.0099 21.2613 10.0704 21.2605 10.1313L21.2596 10.1304ZM21.5729 17.6318C22.2002 18.524 22.5074 19.6021 22.4446 20.6909V29.6906C22.4472 29.8829 22.3733 30.0684 22.2392 30.2062C22.1051 30.3441 21.9219 30.4231 21.7296 30.4259H10.3454C10.1533 30.4229 9.9702 30.3437 9.83633 30.2059C9.70246 30.0681 9.62869 29.8828 9.63126 29.6906V24.0086C9.63126 21.4521 10.6549 21.011 11.8418 20.4997C11.9764 20.442 12.109 20.3853 12.2387 20.3257C14.5569 19.2637 15.9448 17.8076 16.0755 13.7153H20.3821C20.3817 15.1103 20.7962 16.473 21.5729 17.6318ZM21.893 5.51615C21.4818 5.52198 21.0896 5.69053 20.8025 5.98488C20.5153 6.27924 20.3566 6.6754 20.361 7.08659V8.36677H16.0879V7.51716C16.0887 7.39097 16.0528 7.26727 15.9846 7.16113C15.9163 7.05499 15.8186 6.97099 15.7035 6.91936L9.52848 4.27346C9.40684 4.22024 9.30345 4.1325 9.23119 4.02111C9.15892 3.90973 9.12087 3.77959 9.12185 3.64682V2.49158C9.12082 2.4196 9.14837 2.35015 9.19846 2.29845C9.24854 2.24675 9.31713 2.21701 9.3891 2.21575H20.4917C20.6583 2.21652 20.8185 2.27999 20.9405 2.39355L24.312 5.52096L21.893 5.51615Z" fill="#464441"/>
<path d="M21.0424 20.5073H19.7766V28.0539H21.0424V20.5073Z" fill="#464441"/>
</svg>
