<svg width="28" height="37" viewBox="0 0 28 37" fill="none" xmlns="http://www.w3.org/2000/svg">
<path d="M14.3515 35.1526L18.7291 31.9388C23.9398 28.1047 27.0118 22.0197 27 15.5508V5.05862C27 4.8932 26.935 4.73369 26.8109 4.62144C26.6928 4.5092 26.5273 4.45012 26.3619 4.46193L22.9591 4.72778C20.6137 4.91092 18.2801 4.20199 16.431 2.74869L14.3633 1.12406C14.1506 0.958646 13.8493 0.958646 13.6367 1.12406L11.569 2.74869C9.71983 4.20199 7.38627 4.91092 5.0409 4.72778L1.63804 4.46193C1.47263 4.45012 1.31312 4.5092 1.18906 4.62144C1.0709 4.73369 1.00001 4.8932 1.00001 5.05862V15.5508C0.994101 22.0197 4.06612 28.1047 9.27084 31.9388L13.6485 35.1526C13.8552 35.3062 14.1388 35.3062 14.3456 35.1526H14.3515Z" stroke="#464441" stroke-width="1.5" stroke-linecap="round" stroke-linejoin="round"/>
<path d="M10.8722 29.6985C6.55 26.4941 4 21.4285 4 16.0396V7.94241L5.4 8.05387C5.68333 8.07616 5.97222 8.08731 6.25556 8.08731C8.73333 8.08731 11.1333 7.24582 13.0833 5.71889L14 5L14.9167 5.71889C16.8667 7.25139 19.2722 8.08173 21.7444 8.08731C22.0278 8.08731 22.3111 8.07616 22.6 8.05387L24 7.94241V16.0396C24 21.4285 21.45 26.4997 17.1278 29.6985L14 32L10.8722 29.6985V29.6985Z" stroke="#464441" stroke-width="1.5" stroke-linecap="round" stroke-linejoin="round"/>
</svg>
