<svg width="29" height="29" viewBox="0 0 29 29" fill="none" xmlns="http://www.w3.org/2000/svg">
<path d="M10.7994 10.4599L2.61489 18.6444C1.0395 20.22 1.0395 22.7743 2.61489 24.35L4.51678 26.2519C6.09242 27.8273 8.64675 27.8273 10.2224 26.2519L18.4069 18.0674C19.6169 16.8596 19.9321 15.0192 19.193 13.4775C18.9977 13.0628 18.7317 12.6852 18.4069 12.3618L16.505 10.4599C16.1815 10.135 15.804 9.86901 15.3892 9.6738" stroke="#464441" stroke-width="1.5" stroke-linecap="round" stroke-linejoin="round"/>
<path d="M10.0133 15.0498L4.83373 20.2293C4.49734 20.5655 4.30835 21.0216 4.30835 21.4972C4.30835 21.9728 4.49734 22.4289 4.83373 22.7651L6.10163 24.033C6.43785 24.3694 6.89396 24.5584 7.36956 24.5584C7.84516 24.5584 8.30127 24.3694 8.63748 24.033L13.817 18.8534L16.188 16.4824C16.296 16.3764 16.3888 16.2558 16.4637 16.1242C16.8801 15.4206 16.7666 14.5242 16.188 13.9466L14.9201 12.6787C14.3424 12.1 13.4461 11.9865 12.7424 12.4029" stroke="#464441" stroke-width="1.5" stroke-linecap="round" stroke-linejoin="round"/>
<path d="M19.1929 13.4776L24.0329 8.63757C24.3693 8.30136 24.5583 7.84525 24.5583 7.36965C24.5583 6.89405 24.3693 6.43794 24.0329 6.10173L22.765 4.83382C22.4288 4.49744 21.9727 4.30844 21.4971 4.30844C21.0215 4.30844 20.5654 4.49744 20.2291 4.83382L15.3892 9.67381L13.0181 12.0448C12.9101 12.1509 12.8174 12.2715 12.7424 12.403C12.326 13.1066 12.4395 14.003 13.0181 14.5806L14.2861 15.8486C14.8637 16.4272 15.7601 16.5407 16.4637 16.1243" stroke="#464441" stroke-width="1.5" stroke-linecap="round" stroke-linejoin="round"/>
<path d="M18.4068 18.0673L26.2516 10.2225C27.827 8.64686 27.827 6.09252 26.2516 4.51689L24.3498 2.61486C22.7742 1.03947 20.2199 1.03947 18.6442 2.61486L10.7994 10.4597C9.58927 11.6675 9.27405 13.508 10.0133 15.0497C10.2085 15.4644 10.4745 15.842 10.7994 16.1655L12.7012 18.0673C13.0246 18.3922 13.4022 18.6581 13.8169 18.8533" stroke="#464441" stroke-width="1.5" stroke-linecap="round" stroke-linejoin="round"/>
</svg>
