<?xml version="1.0" encoding="UTF-8"?>
<svg id="Layer_1" xmlns="http://www.w3.org/2000/svg" version="1.1" viewBox="0 0 71 72.5">
  <!-- Generator: Adobe Illustrator 29.1.0, SVG Export Plug-In . SVG Version: 2.1.0 Build 142)  -->
  <defs>
    <style>
      .st0 {
        fill: #464441;
      }
    </style>
  </defs>
  <path class="st0" d="M62.7,30.4L45.5,6c-.3-.3-.7-.6-1.2-.6s-.9.2-1.1.6l-17.2,24.4c-1.1,1.5-1.9,3.2-2.6,4.8-2.8-2.6-7.1-2.5-9.8.2-1.7,1.7-4.4,1.7-6.1,0-.6-.6-1.4-.6-1.9,0s-.6,1.4,0,1.9c2.8,2.8,7.2,2.8,10,0s4.4-1.7,6.1,0c.3.3.6.5.8.7-.3,1-.5,2-.6,3-2.7-1.4-6.1-1-8.3,1.2-1.7,1.7-4.4,1.7-6.1,0-.6-.6-1.4-.6-1.9,0s-.6,1.4,0,1.9c2.8,2.8,7.2,2.8,10,0s4.4-1.7,6.1,0h0c0,1.2.1,2.5.3,3.7-2.7-1.4-6.1-1.1-8.4,1.2-1.7,1.7-4.4,1.7-6.1,0-.6-.6-1.4-.6-1.9,0s-.6,1.4,0,1.9c2.8,2.8,7.2,2.8,10,0,1.7-1.7,4.4-1.7,6.1,0,.4.5,1,.8,1.4,1.1.3.8.6,1.7,1,2.4,3.7,7.9,10.9,12.6,19.2,13h2.1c8.3-.3,15.5-5.1,19.2-12.7,3.9-7.9,3.2-17.2-1.8-24.4ZM62.1,53.6c-3.3,6.7-9.6,10.8-16.8,11.2h-1.9c-7.2-.3-13.5-4.5-16.8-11.2,0,0,0-.1-.1-.3,1.9,0,3.8-.6,5.2-2.1,1.7-1.7,4.4-1.7,6.1,0,1.4,1.4,3.2,2.1,5,2.1s3.7-.7,5-2.1.6-1.4,0-1.9-1.4-.6-1.9,0c-1.7,1.7-4.4,1.7-6.1,0-2.8-2.8-7.2-2.8-10,0-1.2,1.2-2.9,1.5-4.3,1-.4-1.4-.7-2.8-.8-4.3,2.4.8,5.2.2,7.2-1.7,1.7-1.7,4.4-1.7,6.1,0s3.2,2.1,5,2.1,3.7-.7,5-2.1c.6-.6.6-1.4,0-1.9s-1.4-.6-1.9,0c-1.7,1.7-4.4,1.7-6.1,0-2.8-2.8-7.2-2.8-10,0s-3.6,1.7-5.3.7c0-1.2.2-2.5.6-3.7,2.3.6,4.9,0,6.7-1.9s1.9-1.2,3-1.2,2.3.5,3,1.2c1.4,1.4,3.2,2.1,5,2.1s3.7-.7,5-2.1c.6-.6.6-1.4,0-1.9s-1.4-.6-1.9,0c-1.7,1.7-4.4,1.7-6.1,0s-3.1-2.1-5-2.1-3.7.8-5,2.1c-1,1-2.6,1.4-3.9,1.2.6-1.7,1.4-3.2,2.5-4.7l16-22.8,16.1,22.8c4.5,6.3,5.1,14.6,1.7,21.5Z"/>
</svg>