<?xml version="1.0" encoding="utf-8"?>
<!DOCTYPE svg PUBLIC "-//W3C//DTD SVG 1.1//EN" "http://www.w3.org/Graphics/SVG/1.1/DTD/svg11.dtd">
<svg version="1.1" xmlns="http://www.w3.org/2000/svg" width="30" height="29.091" viewBox="0 0 30 29.091">
    <g transform="translate(-224.946 -811.834)">
        <path class="a"
              d="M253.063,822.8H251.7v-6.981a4.014,4.014,0,0,0-4.03-3.987H232.22a4.014,4.014,0,0,0-4.03,3.987V822.8h-1.36a1.876,1.876,0,0,0-1.884,1.864v11.781a1.876,1.876,0,0,0,1.884,1.864h1.36v2.614h1.354v-2.614h20.806v2.614H251.7v-2.614h1.36a1.876,1.876,0,0,0,1.883-1.864V824.666A1.876,1.876,0,0,0,253.063,822.8Zm-23.52-6.981a2.664,2.664,0,0,1,2.677-2.644h15.453a2.664,2.664,0,0,1,2.677,2.644V822.8h-.689a1.876,1.876,0,0,0-1.883,1.864v3.153a3.315,3.315,0,0,0-1.977-.66H234.093a3.317,3.317,0,0,0-1.977.66v-3.153a1.876,1.876,0,0,0-1.883-1.864h-.69Zm2.573,15.343v-.7a1.972,1.972,0,0,1,1.977-1.962H245.8a1.972,1.972,0,0,1,1.977,1.962v.7Zm21.477,5.283a.527.527,0,0,1-.53.522H226.83a.527.527,0,0,1-.53-.522V824.666a.527.527,0,0,1,.53-.522h3.4a.526.526,0,0,1,.529.522v7.221a.675.675,0,0,0,.677.671h17.014a.674.674,0,0,0,.677-.671v-7.221a.527.527,0,0,1,.53-.522h3.4a.527.527,0,0,1,.53.522Z"
              transform="translate(0 0)"/>
        <circle class="a" cx="1" cy="1" r="1" transform="translate(238.946 819.37)"/>
        <circle class="a" cx="1" cy="1" r="1" transform="translate(234.462 816.71)"/>
        <circle class="a" cx="1" cy="1" r="1" transform="translate(234.462 822.029)"/>
        <circle class="a" cx="1" cy="1" r="1" transform="translate(243.431 816.71)"/>
        <circle class="a" cx="1" cy="1" r="1" transform="translate(243.431 822.029)"/>
    </g>
</svg>
